<svg xmlns="http://www.w3.org/2000/svg" xmlns:xlink="http://www.w3.org/1999/xlink" version="1.1" x="0px" y="0px" viewBox="0 0 16 20" style="enable-background:new 0 0 16 16;" xml:space="preserve"><path d="M8,0C3.582,0,0,3.582,0,8c0,4.418,3.582,8,8,8c4.418,0,8-3.582,8-8C16,3.582,12.418,0,8,0z M5.24,5.555  c0.683,0,1.236,0.553,1.236,1.236S5.923,8.027,5.24,8.027S4.004,7.474,4.004,6.791S4.558,5.555,5.24,5.555z M11.791,12.388  c-0.096,0.091-0.218,0.136-0.34,0.136c-0.131,0-0.262-0.051-0.359-0.154C10.275,11.506,9.178,11.031,8,11.031  c-1.18,0-2.277,0.475-3.091,1.337c-0.187,0.198-0.501,0.208-0.7,0.02c-0.2-0.187-0.209-0.501-0.021-0.698  C5.191,10.626,6.545,10.041,8,10.041c1.452,0,2.807,0.585,3.811,1.646C11.999,11.886,11.99,12.2,11.791,12.388z M10.76,8.027  c-0.683,0-1.236-0.553-1.236-1.236s0.554-1.236,1.236-1.236s1.236,0.553,1.236,1.236S11.442,8.027,10.76,8.027z"/><text x="0" y="31" fill="#000000" font-size="5px" font-weight="bold" font-family="'Helvetica Neue', Helvetica, Arial-Unicode, Arial, Sans-serif">Created by Rflor</text><text x="0" y="36" fill="#000000" font-size="5px" font-weight="bold" font-family="'Helvetica Neue', Helvetica, Arial-Unicode, Arial, Sans-serif">from the Noun Project</text></svg>