<svg xmlns="http://www.w3.org/2000/svg" xmlns:xlink="http://www.w3.org/1999/xlink" viewBox="0 0 100 125" version="1.1" x="0px" y="0px"><title>Artboard</title><desc>Created with Sketch.</desc><g stroke="none" stroke-width="1" fill="none" fill-rule="evenodd"><path d="M43,44 C49.3856369,44 54.772748,48.2751976 56.4552192,54.119479 C56.9578718,54.040581 57.4741968,54 58,54 C63.4292399,54 67.8479317,58.3266708 67.9961582,63.7200952 L68,64 C68,68.418278 64.418278,72 60,72 L26,72 C21.581722,72 18,68.418278 18,64 C18,58.4771525 22.4771525,54 28,54 C28.5258032,54 29.0421282,54.040581 29.5460139,54.1187817 C31.227252,48.2751976 36.6143631,44 43,44 Z M71.3366927,56.2138131 L75.6421356,60.5208153 L73.5208153,62.6421356 L69.2138131,58.3366927 C70.0034639,57.7165936 70.7165936,57.0034639 71.3366927,56.2138131 Z M61.5,38 C67.2989899,38 72,42.7010101 72,48.5 C72,51.9714495 70.3153558,55.0494292 67.7190032,56.9610035 C65.6046194,54.0458055 62.2109021,52.1194327 58.3621304,52.0053597 L58,52 L57.8379901,52.0025308 C56.60599,48.9574711 54.4638396,46.3780686 51.7488344,44.6016188 C53.2956448,40.7326678 57.078698,38 61.5,38 Z M82,47 L82,50 L73.910806,50.0009946 C73.9696991,49.5088795 74,49.0079783 74,48.5 C74,47.9923651 73.96974,47.4917979 73.9109254,47.0000036 L82,47 Z M49.4791847,34.3578644 L53.7861869,38.6633073 C52.9965361,39.2834064 52.2834064,39.9965361 51.6633073,40.7861869 L47.3578644,36.4791847 L49.4791847,34.3578644 Z M73.5208153,34.3578644 L75.6421356,36.4791847 L71.3366927,40.7861869 C70.7165936,39.9965361 70.0034639,39.2834064 69.2138131,38.6633073 L73.5208153,34.3578644 Z M63,28 L63.0009946,36.089194 C62.5088795,36.0303009 62.0079783,36 61.5,36 C60.9923651,36 60.4917979,36.03026 60.0000036,36.0890746 L60,28 L63,28 Z" fill="#000000"/></g><text x="0" y="115" fill="#000000" font-size="5px" font-weight="bold" font-family="'Helvetica Neue', Helvetica, Arial-Unicode, Arial, Sans-serif">Created by franc11s</text><text x="0" y="120" fill="#000000" font-size="5px" font-weight="bold" font-family="'Helvetica Neue', Helvetica, Arial-Unicode, Arial, Sans-serif">from the Noun Project</text></svg>