<svg xmlns="http://www.w3.org/2000/svg" xmlns:xlink="http://www.w3.org/1999/xlink" xml:space="preserve" version="1.1" style="shape-rendering:geometricPrecision;text-rendering:geometricPrecision;image-rendering:optimizeQuality;" viewBox="0 0 371 463.75" x="0px" y="0px" fill-rule="evenodd" clip-rule="evenodd"><defs><style type="text/css">
   
    .fil0 {fill:black}
   
  </style></defs><g><path class="fil0" d="M186 0c-103,0 -186,83 -186,186 0,102 83,185 186,185 102,0 185,-83 185,-185 0,-103 -83,-186 -185,-186zm106 143l-130 130c-8,7 -19,7 -27,0l-55 -56c-18,-17 9,-43 26,-26l43 43 116 -117c18,-17 44,9 27,26z"/></g><text x="0" y="386" fill="#000000" font-size="5px" font-weight="bold" font-family="'Helvetica Neue', Helvetica, Arial-Unicode, Arial, Sans-serif">Created by My Toley</text><text x="0" y="391" fill="#000000" font-size="5px" font-weight="bold" font-family="'Helvetica Neue', Helvetica, Arial-Unicode, Arial, Sans-serif">from the Noun Project</text></svg>