<svg xmlns="http://www.w3.org/2000/svg" data-name="Layer 1" viewBox="0 0 512 640" x="0px" y="0px"><title>p</title><path d="M126.64,111.81A26.85,26.85,0,0,0,91.42,71.26,251.09,251.09,0,1,0,419,69.94a26.85,26.85,0,1,0-34.89,40.83,197.24,197.24,0,0,1,69.23,150.13c0,108.84-88.55,197.39-197.39,197.39S58.61,369.75,58.61,260.91A197.4,197.4,0,0,1,126.64,111.81Z"/><path d="M282.85,277.72V26.85a26.85,26.85,0,1,0-53.71,0V277.72A26.85,26.85,0,1,0,282.85,277.72Z"/><text x="0" y="527" fill="#000000" font-size="5px" font-weight="bold" font-family="'Helvetica Neue', Helvetica, Arial-Unicode, Arial, Sans-serif">Created by i cons</text><text x="0" y="532" fill="#000000" font-size="5px" font-weight="bold" font-family="'Helvetica Neue', Helvetica, Arial-Unicode, Arial, Sans-serif">from the Noun Project</text></svg>