<svg xmlns:rdf="http://www.w3.org/1999/02/22-rdf-syntax-ns#" xmlns="http://www.w3.org/2000/svg" xmlns:cc="http://creativecommons.org/ns#" xmlns:dc="http://purl.org/dc/elements/1.1/" version="1.1" x="0px" y="0px" viewBox="0 0 100 125"><g transform="translate(0,-952.36218)"><path d="m50,957.8c-24.612,0-44.562,19.95-44.562,44.563,0,24.612,19.95,44.562,44.562,44.562s44.562-19.95,44.562-44.562-19.95-44.563-44.562-44.563zm-13.781,29.719c2.344,0,4.2188,1.8748,4.2188,4.2188,0,2.3441-1.8748,4.25-4.2188,4.25s-4.25-1.9059-4.25-4.25c0-2.344,1.906-4.2188,4.25-4.2188zm27.562,0c2.344,0,4.25,1.8748,4.25,4.2188,0,2.3441-1.906,4.25-4.25,4.25s-4.25-1.9059-4.25-4.25c0-2.344,1.906-4.2188,4.25-4.2188zm-31.938,27.563a1.0594,1.0594,0,0,1,0.094,0,1.0594,1.0594,0,0,1,0.875,0.4375c1.4338,1.9117,4.1526,3.9958,7.3125,5.5312,3.1599,1.5355,6.7528,2.5313,9.875,2.5313s6.7151-0.9958,9.875-2.5313c3.1599-1.5354,5.8787-3.6195,7.3125-5.5312a1.0594,1.0594,0,0,1,1.6875,1.2812c-1.7494,2.3325-4.7026,4.4773-8.0938,6.125-3.3911,1.6478-7.2148,2.7813-10.781,2.7813-3.5664,0-7.3901-1.1335-10.781-2.7813-3.3911-1.6477-6.3444-3.7925-8.0938-6.125a1.0594,1.0594,0,0,1,0.7187,-1.7187z" style="color:#000000;enable-background:accumulate;" fill="#000"/></g><text x="0" y="115" fill="#000000" font-size="5px" font-weight="bold" font-family="'Helvetica Neue', Helvetica, Arial-Unicode, Arial, Sans-serif">Created by maspao</text><text x="0" y="120" fill="#000000" font-size="5px" font-weight="bold" font-family="'Helvetica Neue', Helvetica, Arial-Unicode, Arial, Sans-serif">from the Noun Project</text></svg>