<svg xmlns="http://www.w3.org/2000/svg" xmlns:xlink="http://www.w3.org/1999/xlink" version="1.1" x="0px" y="0px" viewBox="0 0 100 125" style="enable-background:new 0 0 100 100;" xml:space="preserve"><g><path d="M43.6,54.8l-5.1-3V41.3l9.1,5.3v5.9c0,0.6,0.4,1,1,1s1-0.4,1-1v-4.8l4.6,2.7c0.2,0.1,0.3,0.1,0.5,0.1   c0.3,0,0.7-0.2,0.9-0.5c0.3-0.5,0.1-1.1-0.4-1.4L50.6,46l4.1-2.4c0.5-0.3,0.6-0.9,0.4-1.4c-0.3-0.5-0.9-0.6-1.4-0.4l-5.1,3   l-9.1-5.3l9.1-5.3l5.1,3c0.2,0.1,0.3,0.1,0.5,0.1c0.3,0,0.7-0.2,0.9-0.5c0.3-0.5,0.1-1.1-0.4-1.4l-4.1-2.4l4.6-2.7   c0.5-0.3,0.6-0.9,0.4-1.4c-0.3-0.5-0.9-0.6-1.4-0.4l-4.6,2.7v-4.8c0-0.6-0.4-1-1-1s-1,0.4-1,1v5.9l-9.1,5.3V27.3l5.1-3   c0.5-0.3,0.6-0.9,0.4-1.4c-0.3-0.5-0.9-0.6-1.4-0.4L38.5,25v-5.4c0-0.6-0.4-1-1-1s-1,0.4-1,1V25l-4.1-2.4c-0.5-0.3-1.1-0.1-1.4,0.4   s-0.1,1.1,0.4,1.4l5.1,3v10.6l-9.1-5.3v-5.9c0-0.6-0.4-1-1-1s-1,0.4-1,1v4.8l-4.6-2.7c-0.5-0.3-1.1-0.1-1.4,0.4   c-0.3,0.5-0.1,1.1,0.4,1.4l4.6,2.7l-4.1,2.4c-0.5,0.3-0.6,0.9-0.4,1.4c0.2,0.3,0.5,0.5,0.9,0.5c0.2,0,0.3,0,0.5-0.1l5.1-3l9.1,5.3   l-9.1,5.3l-5.1-3c-0.5-0.3-1.1-0.1-1.4,0.4c-0.3,0.5-0.1,1.1,0.4,1.4l4.1,2.4l-4.6,2.7c-0.5,0.3-0.6,0.9-0.4,1.4   c0.2,0.3,0.5,0.5,0.9,0.5c0.2,0,0.3,0,0.5-0.1l4.6-2.7v4.8c0,0.6,0.4,1,1,1s1-0.4,1-1v-5.9l9.1-5.3v10.6l-5.1,3   c-0.5,0.3-0.6,0.9-0.4,1.4c0.2,0.3,0.5,0.5,0.9,0.5c0.2,0,0.3,0,0.5-0.1l4.1-2.4v5.4c0,0.6,0.4,1,1,1s1-0.4,1-1v-5.4l4.1,2.4   c0.2,0.1,0.3,0.1,0.5,0.1c0.3,0,0.7-0.2,0.9-0.5C44.3,55.7,44.1,55.1,43.6,54.8z"/><path d="M63.3,75.3l-5.9-3.4l5.9-3.4c0.5-0.3,0.6-0.9,0.4-1.4c-0.3-0.5-0.9-0.6-1.4-0.4l-5.9,3.4v-6.8c0-0.6-0.4-1-1-1s-1,0.4-1,1   v6.8l-5.9-3.4c-0.5-0.3-1.1-0.1-1.4,0.4c-0.3,0.5-0.1,1.1,0.4,1.4l5.9,3.4l-5.9,3.4c-0.5,0.3-0.6,0.9-0.4,1.4   c0.2,0.3,0.5,0.5,0.9,0.5c0.2,0,0.3,0,0.5-0.1l5.9-3.4v6.8c0,0.6,0.4,1,1,1s1-0.4,1-1v-6.8l5.9,3.4c0.2,0.1,0.3,0.1,0.5,0.1   c0.3,0,0.7-0.2,0.9-0.5C64,76.2,63.8,75.6,63.3,75.3z"/><path d="M80.3,52.8l-5.9-3.4l5.9-3.4c0.5-0.3,0.6-0.9,0.4-1.4c-0.3-0.5-0.9-0.6-1.4-0.4l-5.9,3.4v-6.8c0-0.6-0.4-1-1-1s-1,0.4-1,1   v6.8l-5.9-3.4c-0.5-0.3-1.1-0.1-1.4,0.4c-0.3,0.5-0.1,1.1,0.4,1.4l5.9,3.4l-5.9,3.4c-0.5,0.3-0.6,0.9-0.4,1.4   c0.2,0.3,0.5,0.5,0.9,0.5c0.2,0,0.3,0,0.5-0.1l5.9-3.4v6.8c0,0.6,0.4,1,1,1s1-0.4,1-1v-6.8l5.9,3.4c0.2,0.1,0.3,0.1,0.5,0.1   c0.3,0,0.7-0.2,0.9-0.5C80.9,53.7,80.8,53.1,80.3,52.8z"/></g><text x="0" y="115" fill="#000000" font-size="5px" font-weight="bold" font-family="'Helvetica Neue', Helvetica, Arial-Unicode, Arial, Sans-serif">Created by Lucas Takeuchi</text><text x="0" y="120" fill="#000000" font-size="5px" font-weight="bold" font-family="'Helvetica Neue', Helvetica, Arial-Unicode, Arial, Sans-serif">from the Noun Project</text></svg>