<svg xmlns="http://www.w3.org/2000/svg" data-name="Layer 1" viewBox="0 0 100 125" x="0px" y="0px"><title>Artboard 15</title><path d="M82,55V22a3,3,0,0,0-3-3H21a3,3,0,0,0-3,3V55a3,3,0,0,0,3,3H79A3,3,0,0,0,82,55ZM20,55V22a1,1,0,0,1,1-1H79a1,1,0,0,1,1,1V55a1,1,0,0,1-1,1H21A1,1,0,0,1,20,55Z"/><path d="M47,70H39v6H61V70H53V62H83a3,3,0,0,0,3-3V18a3,3,0,0,0-3-3H17a3,3,0,0,0-3,3V59a3,3,0,0,0,3,3H47Zm12,2v2H41V72H59Zm-8-2H49V62h2ZM17,60a1,1,0,0,1-1-1V18a1,1,0,0,1,1-1H83a1,1,0,0,1,1,1V59a1,1,0,0,1-1,1H17Z"/><path d="M69,94H86V65H69Zm2-27H84V92H71Z"/><circle cx="82" cy="70" r="1"/><path d="M74,69H73a1,1,0,0,0,0,2h1a1,1,0,0,0,0-2Z"/><path d="M74,74H73a1,1,0,0,0,0,2h1a1,1,0,0,0,0-2Z"/><path d="M78,74H77a1,1,0,0,0,0,2h1a1,1,0,0,0,0-2Z"/><path d="M82,74H81a1,1,0,0,0,0,2h1a1,1,0,0,0,0-2Z"/><path d="M74,77H73a1,1,0,0,0,0,2h1a1,1,0,0,0,0-2Z"/><path d="M78,77H77a1,1,0,0,0,0,2h1a1,1,0,0,0,0-2Z"/><path d="M82,77H81a1,1,0,0,0,0,2h1a1,1,0,0,0,0-2Z"/><path d="M74,80H73a1,1,0,0,0,0,2h1a1,1,0,0,0,0-2Z"/><path d="M78,80H77a1,1,0,0,0,0,2h1a1,1,0,0,0,0-2Z"/><path d="M82,80H81a1,1,0,0,0,0,2h1a1,1,0,0,0,0-2Z"/><path d="M74,83H73a1,1,0,0,0,0,2h1a1,1,0,0,0,0-2Z"/><path d="M78,83H77a1,1,0,0,0,0,2h1a1,1,0,0,0,0-2Z"/><path d="M82,83H81a1,1,0,0,0,0,2h1a1,1,0,0,0,0-2Z"/><text x="0" y="115" fill="#000000" font-size="5px" font-weight="bold" font-family="'Helvetica Neue', Helvetica, Arial-Unicode, Arial, Sans-serif">Created by James Fok</text><text x="0" y="120" fill="#000000" font-size="5px" font-weight="bold" font-family="'Helvetica Neue', Helvetica, Arial-Unicode, Arial, Sans-serif">from the Noun Project</text></svg>